<?xml version="1.0" standalone="no"?>
<!DOCTYPE svg PUBLIC "-//W3C//DTD SVG 1.1//EN" "http://www.w3.org/Graphics/SVG/1.1/DTD/svg11.dtd" >
<svg xmlns="http://www.w3.org/2000/svg">
<metadata></metadata>
<defs>
<font id="eausans_bold" horiz-adv-x="1334" >
<font-face units-per-em="2048" ascent="1593" descent="-455" />
<missing-glyph horiz-adv-x="530" />
<glyph horiz-adv-x="2048" />
<glyph horiz-adv-x="2048" />
<glyph unicode="&#xd;" horiz-adv-x="2048" />
<glyph unicode=" "  horiz-adv-x="530" />
<glyph unicode="&#x09;" horiz-adv-x="530" />
<glyph unicode="&#xa0;" horiz-adv-x="530" />
<glyph unicode="!" horiz-adv-x="629" d="M152 1517h326l-64 -1092h-199zM170 0v278h290v-278h-290z" />
<glyph unicode="&#x22;" horiz-adv-x="1001" d="M141 1009l64 508h291l-194 -508h-161zM558 1009l64 508h291l-194 -508h-161z" />
<glyph unicode="#" horiz-adv-x="1228" d="M46 569v182h238l65 315h-206v181h242l55 270h190l-55 -270h217l55 270h188l-53 -270h201v-181h-239l-64 -315h205v-182h-242l-54 -266h-190l53 266h-215l-53 -266h-191l54 266h-201zM473 751h217l64 315h-215z" />
<glyph unicode="$" horiz-adv-x="1066" d="M61 220l156 156q96 -98 235 -114v413q-44 15 -75 27t-72 32t-68.5 40t-57.5 50.5t-47.5 65.5t-29 81.5t-11.5 101.5q0 90 39 169t122.5 138t199.5 79v210h175v-204q224 -17 373 -166l-157 -157q-97 97 -216 113v-378q55 -18 90.5 -32.5t84.5 -38.5t80.5 -53t61.5 -69 t44.5 -93.5t14.5 -118.5q0 -161 -99 -272.5t-277 -141.5v-210h-175v202q-240 19 -391 170zM355 1086q0 -49 27 -83t78 -61v290q-51 -23 -78 -63t-27 -83zM619 287q53 26 83.5 72.5t30.5 101.5q0 97 -114 152v-326z" />
<glyph unicode="%" horiz-adv-x="1846" d="M53 1100q0 192 107.5 312t274.5 120t275 -120t108 -312t-108 -312.5t-275 -120.5t-274.5 120.5t-107.5 312.5zM249 1100q0 -119 51 -191t135 -72t135.5 72t51.5 191t-51.5 190.5t-135.5 71.5t-135 -71.5t-51 -190.5zM334 -76l986 1669h192l-986 -1669h-192zM1029 417 q0 192 107.5 312.5t274.5 120.5q168 0 275 -120t107 -313q0 -192 -107 -312t-275 -120q-167 0 -274.5 120t-107.5 312zM1226 417q0 -118 51.5 -190t133.5 -72q84 0 135 71.5t51 190.5t-51 191t-135 72q-82 0 -133.5 -72t-51.5 -191z" />
<glyph unicode="&#x26;" horiz-adv-x="1486" d="M99 393q0 143 74 250t223 193q-107 105 -148.5 183t-41.5 179q0 58 27 117.5t76.5 111t131 84t178.5 32.5q98 0 178.5 -32.5t129.5 -84t75.5 -111t26.5 -117.5q0 -115 -60.5 -205t-190.5 -181l292 -292q47 128 47 314h265q0 -295 -114 -512l323 -322h-355l-135 135 q-179 -162 -452 -162q-249 0 -399.5 117t-150.5 303zM381 410q0 -95 76.5 -160t188.5 -65q174 0 285 120l-376 376q-91 -55 -132.5 -119t-41.5 -152zM467 1191q0 -58 30 -103.5t113 -127.5q89 58 125 111t36 120q0 56 -43 100t-109 44t-109 -44t-43 -100z" />
<glyph unicode="'" horiz-adv-x="591" d="M144 1009l64 508h293l-195 -508h-162z" />
<glyph unicode="(" horiz-adv-x="758" d="M164 759q0 247 74 455.5t202 408.5l238 -91q-116 -181 -179.5 -367.5t-63.5 -405.5q0 -409 243 -774l-238 -91q-128 200 -202 409t-74 456z" />
<glyph unicode=")" horiz-adv-x="758" d="M80 -15q116 181 179.5 368t63.5 406q0 408 -243 773l239 91q128 -202 202 -410t74 -454t-74 -454.5t-202 -410.5z" />
<glyph unicode="*" horiz-adv-x="852" d="M47 1188l46 141l259 -85v273h149v-273l259 85l46 -141l-260 -85l161 -220l-120 -88l-161 221l-161 -221l-119 88l160 220z" />
<glyph unicode="+" horiz-adv-x="1152" d="M83 648v189h399v399h189v-399h399v-189h-399v-398h-189v398h-399z" />
<glyph unicode="," horiz-adv-x="591" d="M111 -231l63 509h292l-194 -509h-161z" />
<glyph unicode="-" horiz-adv-x="705" d="M91 473v190h523v-190h-523z" />
<glyph unicode="." horiz-adv-x="591" d="M152 0v278h288v-278h-288z" />
<glyph unicode="/" horiz-adv-x="667" d="M38 -76l417 1669h175l-418 -1669h-174z" />
<glyph unicode="0" horiz-adv-x="1365" d="M106 759q0 356 154.5 568.5t422.5 212.5t422 -212.5t154 -568.5t-154 -569t-422 -213t-422.5 213t-154.5 569zM394 759q0 -273 73.5 -413.5t215.5 -140.5t215 140.5t73 413.5t-73 413t-215 140q-143 0 -216 -140t-73 -413z" />
<glyph unicode="1" horiz-adv-x="872" d="M61 1098v234q90 13 194.5 70.5t161.5 114.5h238v-1517h-268v1235q-43 -43 -135.5 -83.5t-190.5 -53.5z" />
<glyph unicode="2" horiz-adv-x="1183" d="M99 0v194q269 243 415.5 404t202 268.5t55.5 210.5q0 99 -61.5 165.5t-171.5 66.5q-79 0 -141 -32t-122 -92l-173 173q186 186 455 186q225 0 360 -122.5t135 -314.5q0 -188 -131 -388t-429 -479h607v-240h-1001z" />
<glyph unicode="3" horiz-adv-x="1168" d="M59 159l175 173q122 -124 274 -124q122 0 199 66t77 160q0 95 -77 160.5t-199 65.5h-139v240h139q123 0 190.5 58t67.5 146t-68.5 146.5t-181.5 58.5q-142 0 -266 -124l-173 173q189 185 439 185q226 0 374.5 -122.5t148.5 -311.5q0 -120 -71 -210t-156 -118 q103 -33 182.5 -136.5t79.5 -218.5q0 -192 -158 -322.5t-400 -130.5q-149 0 -265 51t-192 135z" />
<glyph unicode="4" horiz-adv-x="1319" d="M91 341v246l658 930h281v-936h220v-240h-220v-341h-264v341h-675zM358 581h408v583z" />
<glyph unicode="5" horiz-adv-x="1198" d="M99 159l173 173q122 -124 282 -124q128 0 205.5 79t77.5 191q0 114 -77.5 194t-205.5 80q-98 0 -178 -60l-217 109v716h865v-240h-595v-339q76 37 181 37q217 0 358.5 -143t141.5 -354q0 -218 -152 -361.5t-397 -143.5q-152 0 -269.5 51t-192.5 135z" />
<glyph unicode="6" d="M117 759q0 236 73 411t217 272.5t344 97.5q139 0 256 -52.5t194 -129.5l-172 -173q-120 120 -281 120q-163 0 -256.5 -130t-98.5 -360q33 60 121.5 110t193.5 50q229 0 378 -143t149 -356q0 -215 -154.5 -357t-387.5 -142q-187 0 -318 100t-194.5 274t-63.5 408zM426 476 q0 -113 74 -194.5t193 -81.5q121 0 195 81.5t74 194.5q0 112 -74 193.5t-195 81.5q-120 0 -193.5 -81t-73.5 -194z" />
<glyph unicode="7" horiz-adv-x="1175" d="M61 1277v240h1034v-194q-210 -300 -338 -598t-217 -725h-308q103 436 224 728.5t298 548.5h-693z" />
<glyph unicode="8" horiz-adv-x="1304" d="M94 426q0 115 79 218.5t180 136.5q-83 29 -153.5 119t-70.5 209q0 189 148 311.5t375 122.5q226 0 375 -122.5t149 -311.5q0 -120 -71.5 -210t-156.5 -118q103 -33 183 -136.5t80 -218.5q0 -192 -158.5 -322.5t-400.5 -130.5t-400 130.5t-158 322.5zM382 434 q0 -100 74.5 -170.5t195.5 -70.5t195.5 70.5t74.5 170.5t-74.5 170.5t-195.5 70.5t-195.5 -70.5t-74.5 -170.5zM402 1104q0 -91 68.5 -154.5t181.5 -63.5t182 63.5t69 154.5t-69 155t-182 64t-181.5 -64t-68.5 -155z" />
<glyph unicode="9" d="M100 1041q0 215 154.5 357t385.5 142q280 1 429 -211t149 -570q0 -236 -73 -411t-217 -273t-344 -98q-139 0 -256.5 52.5t-194.5 129.5l173 173q120 -120 281 -120q163 0 256.5 130.5t97.5 359.5q-33 -60 -120.5 -109.5t-193.5 -49.5q-229 0 -378 142.5t-149 355.5z M373 1041q0 -113 74 -194t195 -81t194 81t73 194q0 112 -74 193t-195 81q-119 0 -193 -81t-74 -193z" />
<glyph unicode=":" horiz-adv-x="591" d="M152 0v278h288v-278h-288zM152 815v277h288v-277h-288z" />
<glyph unicode=";" horiz-adv-x="591" d="M111 -231l63 509h292l-194 -509h-161zM152 815v277h288v-277h-288z" />
<glyph unicode="&#x3c;" horiz-adv-x="667" d="M114 607l212 425h264l-212 -425l212 -425h-264z" />
<glyph unicode="=" horiz-adv-x="1152" d="M83 458v190h987v-190h-987zM83 837v190h987v-190h-987z" />
<glyph unicode="&#x3e;" horiz-adv-x="667" d="M77 182l213 425l-213 425h264l213 -425l-213 -425h-264z" />
<glyph unicode="?" horiz-adv-x="1080" d="M46 1358q94 92 201.5 139t245.5 47q113 0 208.5 -35t160 -94t100.5 -138t36 -167q0 -106 -38.5 -182t-112.5 -144q-5 -11 -52.5 -51.5t-52.5 -48.5q-76 -71 -107 -124t-31 -135h-258q0 200 126 330q4 11 50 52t50 49q44 45 66 72.5t41 74t19 100.5q0 81 -61.5 143.5 t-154.5 62.5q-144 0 -264 -124zM329 0v278h288v-278h-288z" />
<glyph unicode="@" horiz-adv-x="1729" d="M79 781q8 117 51.5 229.5t119 209t174.5 170t226.5 115.5t265.5 42q233 0 409 -99.5t263 -276t67 -397.5q-17 -188 -141.5 -319.5t-280.5 -131.5q-83 0 -133.5 52t-45.5 132q-38 -85 -131.5 -136.5t-194.5 -51.5q-95 0 -171 56t-112 156t-16 218q34 191 166 312t286 121 q73 0 138.5 -37.5t86.5 -97.5l20 117h204l-104 -591q-14 -97 51 -97q77 0 144.5 93.5t77.5 226.5q14 175 -55.5 312.5t-204.5 212.5t-311 75q-137 0 -259 -53.5t-208 -142.5t-140.5 -206t-64.5 -243q-13 -172 53.5 -314.5t202 -226.5t312.5 -84q125 0 238 46t203 125 l109 -121q-250 -206 -576 -206q-168 0 -309 63t-234 172t-140 258t-36 318zM643 749q-21 -116 25.5 -186t132.5 -70q89 0 160.5 70t92.5 186q20 117 -26.5 187.5t-133.5 70.5q-89 0 -159.5 -70t-91.5 -188z" />
<glyph unicode="A" horiz-adv-x="1441" d="M0 0l564 1517h311l566 -1517h-308l-120 349h-585l-120 -349h-308zM510 587h421l-210 605z" />
<glyph unicode="B" horiz-adv-x="1342" d="M182 0v1517h587q202 0 327 -108t125 -268q0 -141 -85 -245.5t-229 -130.5q154 -16 249.5 -114t95.5 -246q0 -178 -126.5 -291.5t-354.5 -113.5h-589zM466 232h245q120 0 184.5 58.5t64.5 160.5q0 90 -66 145.5t-183 55.5h-245v-420zM466 874h223q108 0 175 58t67 153 q0 91 -54 145.5t-164 54.5h-247v-411z" />
<glyph unicode="C" horiz-adv-x="1331" d="M91 759q0 352 200 566.5t528 214.5q295 0 477 -182l-173 -173q-116 117 -296 117q-190 0 -313.5 -146.5t-123.5 -396.5t123.5 -397t313.5 -147q180 0 296 117l173 -173q-182 -182 -477 -182q-328 0 -528 215t-200 567z" />
<glyph unicode="D" horiz-adv-x="1506" d="M182 0v1517h451q170 0 312 -48.5t247 -142t164 -238.5t59 -329q0 -183 -60 -329t-166 -239t-247.5 -142t-308.5 -49h-451zM470 238h157q217 0 352.5 136.5t135.5 384.5t-135.5 383t-352.5 135h-157v-1039z" />
<glyph unicode="E" horiz-adv-x="1133" d="M182 0v1517h824v-240h-536v-394h519v-240h-519v-405h549v-238h-837z" />
<glyph unicode="F" horiz-adv-x="1080" d="M182 0v1517h837v-240h-549v-394h536v-240h-536v-643h-288z" />
<glyph unicode="G" horiz-adv-x="1456" d="M91 759q0 353 204 567t544 214q151 0 282 -48.5t216 -133.5l-173 -173q-115 117 -314 117q-201 0 -330.5 -146.5t-129.5 -396.5q0 -253 128 -396t332 -143q118 0 207 41v337h-279v239h568v-743q-87 -52 -223 -84.5t-284 -32.5q-225 0 -394.5 97t-261.5 274.5t-92 410.5z " />
<glyph unicode="H" horiz-adv-x="1501" d="M182 0v1517h288v-634h562v634h288v-1517h-288v643h-562v-643h-288z" />
<glyph unicode="I" horiz-adv-x="652" d="M182 0v1517h288v-1517h-288z" />
<glyph unicode="J" horiz-adv-x="1069" d="M0 161l173 171q92 -120 223 -120q94 0 148.5 59.5t54.5 163.5v1082h288v-1082q0 -211 -136.5 -338t-354.5 -127q-232 0 -396 191z" />
<glyph unicode="K" horiz-adv-x="1357" d="M182 0v1517h288v-695l527 695h361l-599 -743l622 -774h-365l-546 724v-724h-288z" />
<glyph unicode="L" horiz-adv-x="1019" d="M182 0v1517h288v-1279h549v-238h-837z" />
<glyph unicode="M" horiz-adv-x="1941" d="M182 0v1517h425l364 -1227l364 1227h425v-1517h-266v1227l-364 -1227h-318l-364 1227v-1227h-266z" />
<glyph unicode="N" horiz-adv-x="1539" d="M182 0v1517h361l545 -1153v1153h270v-1517h-361l-545 1153v-1153h-270z" />
<glyph unicode="O" horiz-adv-x="1577" d="M91 759q0 232 88 410t246.5 274.5t363.5 96.5q311 0 504.5 -215t193.5 -566q0 -232 -88 -410t-246.5 -275t-363.5 -97q-311 0 -504.5 215.5t-193.5 566.5zM390 759q0 -250 112 -397t287 -147q170 0 284.5 147.5t114.5 396.5t-114 396t-285 147q-175 0 -287 -146.5 t-112 -396.5z" />
<glyph unicode="P" horiz-adv-x="1269" d="M182 0v1517h539q223 0 363 -130.5t140 -321.5q0 -195 -139.5 -323.5t-363.5 -128.5h-251v-613h-288zM470 853h223q111 0 173 59t62 151t-62.5 153t-172.5 61h-223v-424z" />
<glyph unicode="Q" horiz-adv-x="1577" d="M91 759q0 351 193.5 566t504.5 215t504.5 -215t193.5 -566q0 -144 -43 -275t-121 -232l250 -126l-192 -194l-264 132q-149 -87 -328 -87q-205 0 -363.5 97t-246.5 275t-88 410zM390 759q0 -250 112 -397t287 -147q170 0 284.5 147.5t114.5 396.5t-114 396t-285 147 q-175 0 -287 -146.5t-112 -396.5z" />
<glyph unicode="R" horiz-adv-x="1342" d="M182 0v1517h558q119 0 213 -32.5t153 -88.5t89.5 -129t30.5 -157q0 -124 -73.5 -226t-193.5 -136q174 -31 217 -235l107 -513h-306l-91 464q-18 86 -64 127.5t-132 41.5h-221v-633h-287zM469 863h218q109 0 177.5 58t68.5 156q0 94 -55.5 149.5t-166.5 55.5h-242v-419z " />
<glyph unicode="S" horiz-adv-x="1171" d="M61 159l173 173q125 -127 314 -127q115 0 187 65t72 159q0 49 -24.5 86.5t-66 62.5t-95 45.5t-113 40.5t-119 42.5t-113 57t-95 78.5t-66 112t-24.5 153q0 86 34 164t98.5 140.5t167.5 99t231 36.5q292 0 481 -189l-173 -173q-125 127 -288 127q-120 0 -186 -57t-66 -132 q0 -49 24.5 -86t66 -61.5t95.5 -45t113 -40.5t118.5 -43.5t113.5 -58t95.5 -79.5t66 -114t24.5 -155q0 -209 -147.5 -339.5t-404.5 -130.5q-161 0 -285.5 53t-208.5 136z" />
<glyph unicode="T" horiz-adv-x="1183" d="M8 1282v235h1168v-235h-440v-1282h-288v1282h-440z" />
<glyph unicode="U" horiz-adv-x="1509" d="M182 496v1021h288v-1021q0 -136 80 -212t204 -76t204.5 76t80.5 212v1021h288v-1021q0 -250 -158 -388t-415 -138q-256 0 -414 138.5t-158 387.5z" />
<glyph unicode="V" horiz-adv-x="1403" d="M3 1517h308l390 -1170l391 1170h307l-546 -1517h-302z" />
<glyph unicode="W" horiz-adv-x="1947" d="M0 1517h297l257 -1176l252 1176h335l253 -1176l257 1176h297l-382 -1517h-340l-252 1170l-252 -1170h-340z" />
<glyph unicode="X" horiz-adv-x="1409" d="M15 0l502 783l-471 734h361l298 -519l296 519h363l-472 -734l502 -783h-361l-328 566l-330 -566h-360z" />
<glyph unicode="Y" horiz-adv-x="1260" d="M-64 1517h360l334 -573l335 573h359l-549 -860v-657h-290v657z" />
<glyph unicode="Z" horiz-adv-x="1130" d="M68 0v225l637 1052h-622v240h964v-224l-637 -1055h652v-238h-994z" />
<glyph unicode="[" horiz-adv-x="773" d="M182 -76v1669h493v-205h-243v-1259h243v-205h-493z" />
<glyph unicode="\" horiz-adv-x="667" d="M38 1593h174l418 -1669h-175z" />
<glyph unicode="]" horiz-adv-x="773" d="M99 -76v205h242v1259h-242v205h493v-1669h-493z" />
<glyph unicode="^" horiz-adv-x="682" d="M38 1198l187 349h233l187 -349h-194l-110 198l-107 -198h-196z" />
<glyph unicode="_" horiz-adv-x="826" d="M0 0v167h827v-167h-827z" />
<glyph unicode="`" horiz-adv-x="682" d="M117 1547h303l144 -349h-148z" />
<glyph unicode="a" horiz-adv-x="1213" d="M99 299q0 152 129 252.5t382 100.5h171q0 88 -7 94q-6 69 -70 116.5t-155 47.5q-138 0 -240 -92l-154 154q181 151 421 151q217 0 344 -114.5t127 -290.5v-718h-258v167q-41 -90 -125.5 -140t-205.5 -50q-154 0 -256.5 94t-102.5 228zM369 319q0 -59 43.5 -100.5 t123.5 -41.5q108 0 176.5 74t68.5 197v34h-182q-113 0 -171.5 -48.5t-58.5 -114.5z" />
<glyph unicode="b" horiz-adv-x="1315" d="M167 0v1517h265v-572q39 74 132 122t187 48q96 0 183 -40.5t153 -112.5t105.5 -180.5t39.5 -235.5t-39.5 -235.5t-105.5 -180.5t-153 -112.5t-183 -40.5q-100 0 -196 52.5t-130 128.5v-158h-258zM432 546q0 -160 75.5 -252t187.5 -92t186.5 92t74.5 252 q0 161 -73.5 253.5t-187.5 92.5q-113 0 -188 -93t-75 -253z" />
<glyph unicode="c" horiz-adv-x="1057" d="M83 546q0 125 43.5 232t117.5 180.5t175 115t215 41.5q206 0 370 -143l-162 -162q-82 82 -197 82q-121 0 -203 -97t-82 -249q0 -151 82 -247.5t203 -96.5q117 0 197 80l162 -162q-164 -143 -370 -143q-114 0 -215 41.5t-175 115t-117.5 180.5t-43.5 232z" />
<glyph unicode="d" horiz-adv-x="1315" d="M83 546q0 127 39.5 235.5t106 180.5t153.5 112.5t182 40.5t188 -48t131 -122v572h267v-1517h-258v158q-35 -76 -131.5 -128.5t-196.5 -52.5q-95 0 -182 40.5t-153.5 112.5t-106 180.5t-39.5 235.5zM360 546q0 -160 75 -252t187 -92t186.5 92t74.5 252t-74.5 253 t-186.5 93q-114 0 -188 -92.5t-74 -253.5z" />
<glyph unicode="e" horiz-adv-x="1168" d="M83 546q0 254 145 411.5t371 157.5t363.5 -153.5t137.5 -415.5v-73h-734q18 -132 98.5 -207.5t199.5 -75.5q64 0 122 22.5t97 62.5l155 -155q-164 -143 -389 -143q-162 0 -290.5 70t-202 200t-73.5 299zM370 663h458q-19 121 -78 184t-146 63q-89 0 -151.5 -65 t-82.5 -182z" />
<glyph unicode="f" horiz-adv-x="834" d="M38 880v212h208v137q0 127 92 215t246 88q98 0 194 -23v-212q-59 23 -120 23q-147 0 -147 -129v-99h255v-212h-255v-880h-265v880h-208z" />
<glyph unicode="g" horiz-adv-x="1315" d="M83 561q0 122 39.5 227t106 176t153.5 111t182 40q107 0 199 -54t129 -130v161h258v-993q0 -213 -159 -357t-415 -144q-270 0 -432 158l152 151q99 -97 268 -97q138 0 228.5 81t90.5 208v83q-40 -75 -129 -124.5t-190 -49.5q-95 0 -182 40t-153.5 110.5t-106 175.5 t-39.5 227zM360 561q0 -150 74.5 -239.5t187.5 -89.5q111 0 186 89.5t75 239.5q0 147 -75.5 239t-185.5 92q-111 0 -186.5 -92t-75.5 -239z" />
<glyph unicode="h" d="M167 0v1517h265v-581q38 80 126 129.5t208 49.5q180 0 291 -117t111 -315v-683h-265v645q0 123 -56 185t-157 62q-116 0 -187 -87.5t-71 -258.5v-546h-265z" />
<glyph unicode="i" horiz-adv-x="599" d="M164 1259v258h271v-258h-271zM167 0v1092h265v-1092h-265z" />
<glyph unicode="j" horiz-adv-x="621" d="M-76 -159q57 -23 118 -23q148 0 148 129v1145h265v-1183q0 -127 -92 -215t-246 -88q-114 0 -193 22v213zM185 1259v258h273v-258h-273z" />
<glyph unicode="k" horiz-adv-x="1190" d="M167 0v1517h265v-907l433 482h326l-493 -531l525 -561h-336l-455 508v-508h-265z" />
<glyph unicode="l" horiz-adv-x="599" d="M167 0v1517h265v-1517h-265z" />
<glyph unicode="m" horiz-adv-x="1926" d="M167 0v1092h258v-171q83 194 299 194q127 0 209 -62.5t124 -158.5q103 221 331 221q169 0 270.5 -117t101.5 -311v-687h-266v645q0 247 -182 247q-87 0 -152 -90.5t-65 -244.5v-557h-264v645q0 247 -183 247q-87 0 -151.5 -90t-64.5 -245v-557h-265z" />
<glyph unicode="n" d="M167 0v1092h258v-168q38 86 128 138.5t213 52.5q180 0 291 -117t111 -315v-683h-265v645q0 123 -56 185t-157 62q-116 0 -187 -87.5t-71 -258.5v-546h-265z" />
<glyph unicode="o" horiz-adv-x="1228" d="M83 546q0 257 150 413t381 156t381 -156t150 -413t-150 -413t-381 -156t-381 156t-150 413zM360 546q0 -161 71.5 -252.5t182.5 -91.5q112 0 183.5 91.5t71.5 252.5t-71 253.5t-184 92.5q-111 0 -182.5 -92.5t-71.5 -253.5z" />
<glyph unicode="p" horiz-adv-x="1315" d="M167 -379v1471h258v-161q34 78 130 131t196 53q96 0 183 -40.5t153 -112.5t105.5 -180.5t39.5 -235.5t-39.5 -235.5t-105.5 -180.5t-153 -112.5t-183 -40.5q-93 0 -186.5 47.5t-132.5 119.5v-523h-265zM432 546q0 -160 75.5 -252t187.5 -92t186.5 92t74.5 252 q0 161 -73.5 253.5t-187.5 92.5q-113 0 -188 -93t-75 -253z" />
<glyph unicode="q" horiz-adv-x="1315" d="M83 546q0 127 39.5 235.5t106 180.5t153.5 112.5t182 40.5q100 0 196.5 -53t131.5 -131v161h258v-1471h-267v523q-38 -73 -131 -120t-188 -47t-182 40.5t-153.5 112.5t-106 180.5t-39.5 235.5zM360 546q0 -160 75 -252t187 -92t186.5 92t74.5 252t-74.5 253t-186.5 93 q-114 0 -188 -92.5t-74 -253.5z" />
<glyph unicode="r" horiz-adv-x="834" d="M167 0v1092h258v-167q89 190 376 190v-243q-40 4 -74 4q-54 0 -96 -10q-96 -20 -147.5 -103t-51.5 -220v-543h-265z" />
<glyph unicode="s" horiz-adv-x="945" d="M56 120l156 155q37 -38 98 -65.5t130 -27.5q83 0 129.5 33t46.5 84q0 34 -18 59.5t-48.5 43t-70 32t-83.5 29.5t-88 32t-83.5 43t-70 59.5t-48.5 84.5t-18 114q0 61 28 119t78.5 104.5t129.5 75t174 28.5q219 0 373 -151l-155 -154q-92 92 -212 92q-72 0 -113.5 -35 t-41.5 -79q0 -28 18 -49.5t48.5 -36.5t70 -29t83.5 -29.5t88 -33.5t83.5 -46t70 -63t48.5 -87.5t18 -116.5q0 -65 -27 -123.5t-78.5 -106.5t-137.5 -76.5t-194 -28.5q-114 0 -215 42t-169 108z" />
<glyph unicode="t" horiz-adv-x="834" d="M38 880v212h208v311h265v-311h255v-212h-255v-554q0 -129 147 -129q61 0 120 23v-212q-82 -23 -194 -23q-154 0 -246 88t-92 215v592h-208z" />
<glyph unicode="u" d="M167 410v682h265v-644q0 -123 56 -184.5t157 -61.5q116 0 187 86.5t71 257.5v546h265v-1092h-258v168q-38 -86 -128 -138.5t-213 -52.5q-180 0 -291 117.5t-111 315.5z" />
<glyph unicode="v" horiz-adv-x="1155" d="M0 1092h291l281 -814l291 814h293l-437 -1092h-290z" />
<glyph unicode="w" horiz-adv-x="1664" d="M15 1092h279l194 -827l211 827h266l211 -827l194 827h279l-316 -1092h-300l-202 792l-200 -792h-300z" />
<glyph unicode="x" horiz-adv-x="1122" d="M30 0l375 563l-358 529h320l193 -324l195 324h321l-358 -529l374 -563h-311l-220 361l-220 -361h-311z" />
<glyph unicode="y" horiz-adv-x="1155" d="M0 1092h291l281 -814l291 814h293l-520 -1298q-11 -31 -34 -61t-59.5 -60t-94 -48.5t-126.5 -18.5q-114 0 -193 22v213q57 -23 118 -23q104 0 132 61q8 3 27.5 48.5t24.5 64.5z" />
<glyph unicode="z" horiz-adv-x="963" d="M76 0v194l478 686h-463v212h781v-197l-478 -678h493v-217h-811z" />
<glyph unicode="{" horiz-adv-x="811" d="M79 645v227h54q68 0 117 49.5t49 117.5v326q0 101 71.5 172t172.5 71h208v-197h-103q-41 0 -70 -29t-29 -70v-311q0 -93 -62 -162t-150 -80q88 -11 150 -80.5t62 -162.5v-311q0 -41 29 -70t70 -29h103v-197h-208q-101 0 -172.5 71t-71.5 172v326q0 70 -48.5 118.5 t-117.5 48.5h-54z" />
<glyph unicode="|" horiz-adv-x="667" d="M246 -379v1896h176v-1896h-176z" />
<glyph unicode="}" horiz-adv-x="811" d="M59 -91v197h105q41 0 69 29t28 70v311q0 93 62.5 162.5t149.5 80.5q-87 12 -149.5 80.5t-62.5 161.5v311q0 41 -28 70t-69 29h-105v197h210q101 0 172.5 -71t71.5 -172v-326q0 -68 49 -117.5t116 -49.5h53v-227h-53q-68 0 -116.5 -48.5t-48.5 -118.5v-326 q0 -101 -71.5 -172t-172.5 -71h-210z" />
<glyph unicode="~" horiz-adv-x="882" d="M49 640l88 87q69 72 176 72q103 0 175 -72l26 -28q25 -22 58 -22q34 0 58 24l83 83l121 -118l-88 -86q-70 -73 -176 -73q-103 0 -176 73l-25 27q-24 21 -56 21q-37 0 -60 -23l-83 -83z" />
<glyph unicode="&#xa1;" horiz-adv-x="629" d="M152 0l63 1092h199l64 -1092h-326zM170 1241v276h290v-276h-290z" />
<glyph unicode="&#xa2;" horiz-adv-x="1039" d="M73 759q0 223 126.5 375t323.5 184v199h126v-191q190 -8 345 -141l-163 -163q-80 77 -182 81v-690q104 7 182 82l163 -163q-154 -133 -345 -142v-190h-126v197q-197 34 -323.5 187t-126.5 375zM349 759q0 -112 47.5 -196.5t126.5 -118.5v629q-79 -35 -126.5 -118.5 t-47.5 -195.5z" />
<glyph unicode="&#xa3;" horiz-adv-x="1196" d="M76 0v240h152v405h-152v129h152v268q0 209 140 353.5t353 144.5q227 0 400 -175l-191 -191q-96 96 -209 96q-91 0 -153.5 -68t-62.5 -160l-1 -268h235v-129h-235v-405h622v-240h-1050z" />
<glyph unicode="&#xa5;" horiz-adv-x="1306" d="M-41 1517h360l333 -573l336 573h359l-470 -733h277v-129h-356v-106h356v-129h-356v-420h-290v420h-356v129h356v106h-356v129h277z" />
<glyph unicode="&#xa6;" horiz-adv-x="667" d="M246 -76v721h176v-721h-176zM246 872v721h176v-721h-176z" />
<glyph unicode="&#xa7;" horiz-adv-x="1002" d="M91 787q0 134 100 225q-68 79 -68 202q0 61 27.5 119t77.5 104.5t129.5 74.5t174.5 28q222 0 372 -150l-155 -155q-92 92 -212 92q-71 0 -112 -35t-41 -78q0 -31 22.5 -55t60 -39t84.5 -32.5t97 -34t97 -45t84.5 -64t60 -93t22.5 -129.5q0 -131 -102 -224q70 -82 70 -202 q0 -61 -28 -119t-78.5 -104.5t-129.5 -74.5t-174 -28q-223 0 -373 150l155 155q93 -93 212 -93q72 0 112.5 35t40.5 79q0 31 -22.5 55t-59.5 38.5t-84.5 32t-96.5 34t-96.5 45.5t-84.5 64.5t-59.5 92.5t-22.5 129zM352 793q0 -16 3.5 -30t13 -26.5t17.5 -22t25.5 -19.5 l28 -16t35 -15t35.5 -13t40 -13.5t40 -13.5q61 33 61 92q0 15 -4 28t-8.5 23.5t-16 21t-19.5 18t-25.5 16t-27 13.5t-32 13.5t-33 12t-36.5 12.5t-36 12q-61 -33 -61 -93z" />
<glyph unicode="&#xa8;" horiz-adv-x="629" d="M8 1262v252h230v-252h-230zM390 1262v252h232v-252h-232z" />
<glyph unicode="&#xa9;" horiz-adv-x="1774" d="M129 759q0 206 101.5 380.5t276 276t380.5 101.5q154 0 294.5 -60t242.5 -161.5t162 -242t60 -294.5t-60 -294.5t-162 -242.5t-242.5 -162t-294.5 -60t-294.5 60t-242 162t-161.5 242.5t-60 294.5zM255 759q0 -172 84.5 -318t230 -230.5t317.5 -84.5q129 0 246 50 t202 135t135 202t50 246q0 172 -84.5 317.5t-230.5 230t-318 84.5t-317.5 -84.5t-230 -230t-84.5 -317.5zM454 759q0 216 123 348t323 132q180 0 292 -112l-104 -103q-71 71 -184 71q-119 0 -195 -90t-76 -246t76 -246.5t195 -90.5q113 0 184 71l104 -103 q-112 -112 -292 -112q-200 0 -323 132.5t-123 348.5z" />
<glyph unicode="&#xaa;" horiz-adv-x="872" d="M85 966q0 105 90 175.5t265 70.5h118q0 1 0.5 9t0.5 16v16.5t-1.5 15t-3.5 7.5q-4 48 -48.5 81.5t-108.5 33.5q-95 0 -166 -64l-107 108q123 103 292 103q152 0 239.5 -79.5t87.5 -202.5v-497h-179v115q-28 -61 -87 -96t-142 -35q-107 0 -178.5 65.5t-71.5 157.5z M272 980q0 -42 30 -70.5t86 -28.5q75 0 122.5 52t47.5 137v22h-126q-78 0 -119 -33t-41 -79z" />
<glyph unicode="&#xab;" horiz-adv-x="1074" d="M114 607l212 425h264l-212 -425l212 -425h-264zM520 607l213 425h264l-213 -425l213 -425h-264z" />
<glyph unicode="&#xad;" horiz-adv-x="705" d="M91 473v190h523v-190h-523z" />
<glyph unicode="&#xae;" horiz-adv-x="1774" d="M129 759q0 206 101.5 380.5t276 276t380.5 101.5q154 0 294.5 -60t242.5 -161.5t162 -242t60 -294.5t-60 -294.5t-162 -242.5t-242.5 -162t-294.5 -60t-294.5 60t-242 162t-161.5 242.5t-60 294.5zM255 759q0 -172 84.5 -318t230 -230.5t317.5 -84.5q129 0 246 50 t202 135t135 202t50 246q0 172 -84.5 317.5t-230.5 230t-318 84.5t-317.5 -84.5t-230 -230t-84.5 -317.5zM573 291v935h340q143 0 220.5 -71t77.5 -178q0 -76 -45.5 -140t-118.5 -85q107 -16 133 -142l67 -319h-184l-56 290q-11 51 -39.5 75.5t-81.5 24.5h-140v-390h-173z M746 825h135q68 0 110 36.5t42 95.5q0 56 -33.5 90.5t-101.5 34.5h-152v-257z" />
<glyph unicode="&#xaf;" horiz-adv-x="682" d="M94 1320v177h493v-177h-493z" />
<glyph unicode="&#xb0;" horiz-adv-x="773" d="M76 1229q0 128 91.5 219.5t219.5 91.5t219.5 -91.5t91.5 -219.5t-91.5 -219.5t-219.5 -91.5t-219.5 91.5t-91.5 219.5zM243 1229q0 -59 42.5 -101.5t101.5 -42.5t101.5 42.5t42.5 101.5t-42.5 101.5t-101.5 42.5t-101.5 -42.5t-42.5 -101.5z" />
<glyph unicode="&#xb1;" horiz-adv-x="1152" d="M83 124v192h987v-192h-987zM83 777v189h399v399h190v-399h398v-189h-398v-398h-190v398h-399z" />
<glyph unicode="&#xb2;" horiz-adv-x="814" d="M68 505v129q254 230 351.5 357t97.5 244q0 59 -41.5 100.5t-111.5 41.5q-94 0 -177 -81l-116 113q123 125 302 125q150 0 241 -83.5t91 -212.5q0 -127 -92.5 -265.5t-278.5 -308.5h403v-159h-669z" />
<glyph unicode="&#xb3;" horiz-adv-x="848" d="M76 611l115 116q80 -82 184 -82q81 0 132 43t51 105q0 63 -51 107.5t-132 44.5h-94v159h94q82 0 126.5 38.5t44.5 98.5q0 58 -45.5 97t-121.5 39q-95 0 -176 -83l-115 115q123 125 291 125q152 0 250.5 -81.5t98.5 -208.5q0 -79 -47.5 -138.5t-104.5 -79.5 q69 -21 122 -90t53 -147q0 -127 -105.5 -214.5t-266.5 -87.5q-193 0 -303 124z" />
<glyph unicode="&#xb4;" horiz-adv-x="682" d="M117 1198l145 349h302l-297 -349h-150z" />
<glyph unicode="&#xb5;" d="M167 -379v1471h265v-644q0 -123 56 -184.5t157 -61.5q116 0 187 86.5t71 257.5v546h265v-1092h-258v168q-38 -86 -128 -138.5t-213 -52.5q-85 0 -137 44v-400h-265z" />
<glyph unicode="&#xb6;" horiz-adv-x="1304" d="M61 1100q0 172 122.5 294.5t294.5 122.5h667v-1896h-262v1684h-144v-1684h-261v1062q-172 0 -294.5 122.5t-122.5 294.5z" />
<glyph unicode="&#xb7;" horiz-adv-x="591" d="M152 467v278h288v-278h-288z" />
<glyph unicode="&#xb8;" horiz-adv-x="713" d="M121 -314l76 77q46 -44 109 -44q42 0 64.5 17.5t22.5 43.5q0 29 -37 47t-112 18l76 155h143l-37 -73q59 -6 101.5 -44.5t42.5 -96.5q0 -69 -70 -121t-183 -52q-110 0 -196 73z" />
<glyph unicode="&#xb9;" horiz-adv-x="678" d="M68 1238v156q60 8 130 46.5t108 76.5h158v-1012h-179v824q-28 -28 -90 -55t-127 -36z" />
<glyph unicode="&#xba;" horiz-adv-x="888" d="M76 1138q0 179 103.5 286.5t264.5 107.5t265 -107.5t104 -286.5t-104 -287t-265 -108t-264.5 108t-103.5 287zM269 1138q0 -112 49 -176t126 -64t126.5 64t49.5 176t-48.5 175.5t-127.5 63.5q-77 0 -126 -63.5t-49 -175.5z" />
<glyph unicode="&#xbb;" horiz-adv-x="1074" d="M77 182l213 425l-213 425h264l213 -425l-213 -425h-264zM484 182l212 425l-212 425h264l212 -425l-212 -425h-264z" />
<glyph unicode="&#xbc;" horiz-adv-x="1720" d="M68 1238v156q60 8 130 46.5t108 76.5h158v-1012h-179v824q-28 -28 -90 -55t-127 -36zM217 -76l986 1669h187l-986 -1669h-187zM877 228v165l440 619h188v-625h146v-159h-146v-228h-178v228h-450zM1056 387h271v390z" />
<glyph unicode="&#xbd;" horiz-adv-x="1817" d="M68 1238v156q60 8 130 46.5t108 76.5h158v-1012h-179v824q-28 -28 -90 -55t-127 -36zM217 -76l986 1669h187l-986 -1669h-187zM1079 0v129q254 230 351.5 357t97.5 244q0 59 -42 100.5t-112 41.5q-93 0 -177 -82l-115 114q123 125 302 125q150 0 241 -83.5t91 -212.5 q0 -127 -92.5 -265.5t-279.5 -308.5h404v-159h-669z" />
<glyph unicode="&#xbe;" horiz-adv-x="1905" d="M76 611l115 116q80 -82 184 -82q81 0 132 43t51 105q0 63 -51 107.5t-132 44.5h-94v159h94q82 0 126.5 38.5t44.5 98.5q0 58 -45.5 97t-121.5 39q-95 0 -176 -83l-115 115q123 125 291 125q152 0 250.5 -81.5t98.5 -208.5q0 -79 -47.5 -138.5t-104.5 -79.5 q69 -21 122 -90t53 -147q0 -127 -105.5 -214.5t-266.5 -87.5q-193 0 -303 124zM400 -76l987 1669h186l-986 -1669h-187zM1062 228v165l440 619h186v-625h146v-159h-146v-228h-176v228h-450zM1239 387h273v390z" />
<glyph unicode="&#xbf;" horiz-adv-x="1080" d="M83 407q0 105 39 181t112 145q5 11 53 51.5t53 48.5q51 49 76.5 80.5t43.5 77t18 101.5h258q0 -200 -126 -330q-5 -11 -51 -52t-51 -49q-65 -66 -94.5 -117.5t-29.5 -129.5q0 -82 61 -144t154 -62q140 0 264 124l173 -173q-94 -92 -201.5 -139t-245.5 -47 q-225 0 -365.5 126.5t-140.5 307.5zM463 1241v276h288v-276h-288z" />
<glyph unicode="&#xc0;" horiz-adv-x="1441" d="M0 0l564 1517h313l564 -1517h-306l-122 349h-584l-121 -349h-308zM440 1954h302l145 -349h-148zM510 587h421l-210 605z" />
<glyph unicode="&#xc1;" horiz-adv-x="1441" d="M0 0l564 1517h313l564 -1517h-306l-122 349h-584l-121 -349h-308zM510 587h421l-210 605zM549 1590l146 349h302l-299 -349h-149z" />
<glyph unicode="&#xc2;" horiz-adv-x="1441" d="M0 0l564 1517h313l564 -1517h-306l-122 349h-584l-121 -349h-308zM417 1590l187 349h232l186 -349h-194l-107 197l-110 -197h-194zM510 587h421l-210 605z" />
<glyph unicode="&#xc3;" horiz-adv-x="1441" d="M0 0l564 1517h313l564 -1517h-306l-122 349h-584l-121 -349h-308zM343 1625q0 105 73.5 178.5t178.5 73.5q103 0 176 -73l27 -26q23 -23 56 -23t57.5 24.5t24.5 57.5h170q0 -105 -73.5 -178.5t-178.5 -73.5q-103 0 -176 73l-27 26q-23 23 -56 23q-34 0 -58 -24.5 t-24 -57.5h-170zM510 587h421l-210 605z" />
<glyph unicode="&#xc4;" horiz-adv-x="1441" d="M0 0l564 1517h313l564 -1517h-306l-122 349h-584l-121 -349h-308zM413 1638v251h232v-251h-232zM510 587h421l-210 605zM796 1638v251h231v-251h-231z" />
<glyph unicode="&#xc5;" horiz-adv-x="1441" d="M0 0l564 1517h313l564 -1517h-306l-122 349h-584l-121 -349h-308zM510 587h421l-210 605zM546 1745q0 72 51.5 123t123.5 51t123 -51t51 -123t-51 -123.5t-123 -51.5t-123.5 51.5t-51.5 123.5zM614 1745q0 -43 32 -75t75 -32t74.5 31.5t31.5 75.5q0 43 -31.5 74.5 t-74.5 31.5q-44 0 -75.5 -31.5t-31.5 -74.5z" />
<glyph unicode="&#xc6;" horiz-adv-x="1794" d="M-152 0l903 1517h913v-240h-534v-394h521v-240h-521v-403h551v-240h-839v349h-464l-196 -349h-334zM510 587h332v584z" />
<glyph unicode="&#xc7;" horiz-adv-x="1331" d="M91 759q0 174 53 320t147.5 247t230.5 157.5t297 56.5q295 0 477 -182l-173 -173q-116 117 -296 117q-190 0 -313.5 -146.5t-123.5 -396.5t123.5 -397t313.5 -147q180 0 296 117l173 -173q-164 -164 -425 -180l-24 -52q58 -6 100 -44t42 -97q0 -69 -70 -121t-183 -52 q-108 0 -194 73l74 77q46 -44 109 -44q42 0 65 17.5t23 43.5q0 29 -36.5 47t-113.5 18l68 137q-291 29 -465.5 239.5t-174.5 537.5z" />
<glyph unicode="&#xc8;" horiz-adv-x="1134" d="M182 0v1517h824v-240h-536v-394h521v-240h-521v-403h551v-240h-839zM297 1939h302l144 -349h-148z" />
<glyph unicode="&#xc9;" horiz-adv-x="1134" d="M182 0v1517h824v-240h-536v-394h521v-240h-521v-403h551v-240h-839zM423 1590l146 349h303l-299 -349h-150z" />
<glyph unicode="&#xca;" horiz-adv-x="1134" d="M182 0v1517h824v-240h-536v-394h521v-240h-521v-403h551v-240h-839zM294 1590l187 349h232l187 -349h-195l-107 197l-110 -197h-194z" />
<glyph unicode="&#xcb;" horiz-adv-x="1134" d="M182 0v1517h824v-240h-536v-394h521v-240h-521v-403h551v-240h-839zM299 1638v251h232v-251h-232zM683 1638v251h230v-251h-230z" />
<glyph unicode="&#xcc;" horiz-adv-x="652" d="M42 1939h302l146 -349h-150zM182 0v1517h288v-1517h-288z" />
<glyph unicode="&#xcd;" horiz-adv-x="652" d="M164 1590l144 349h303l-298 -349h-149zM182 0v1517h288v-1517h-288z" />
<glyph unicode="&#xce;" horiz-adv-x="652" d="M23 1590l186 349h232l187 -349h-194l-108 197l-109 -197h-194zM182 0v1517h288v-1517h-288z" />
<glyph unicode="&#xcf;" horiz-adv-x="652" d="M20 1638v251h230v-251h-230zM182 0v1517h288v-1517h-288zM402 1638v251h232v-251h-232z" />
<glyph unicode="&#xd0;" horiz-adv-x="1506" d="M20 663v191h162v663h452q169 0 311 -48.5t247 -142t164 -238.5t59 -329q0 -183 -60 -329t-166 -239t-247 -142t-308 -49h-452v663h-162zM470 240h157q217 0 352.5 135.5t135.5 383.5t-135.5 383t-352.5 135h-157v-423h164v-191h-164v-423z" />
<glyph unicode="&#xd1;" horiz-adv-x="1539" d="M182 0v1517h361l545 -1153v1153h270v-1517h-361l-545 1153v-1153h-270zM388 1625q0 105 73.5 178.5t178.5 73.5q103 0 176 -73l27 -26q23 -23 57 -23q33 0 57.5 24.5t24.5 57.5h169q0 -105 -73 -178.5t-178 -73.5q-103 0 -176 73l-28 26q-23 23 -56 23q-34 0 -58 -24.5 t-24 -57.5h-170z" />
<glyph unicode="&#xd2;" horiz-adv-x="1577" d="M91 759q0 351 193.5 566t504.5 215t504.5 -215t193.5 -566q0 -232 -88 -410t-246.5 -275t-363.5 -97t-363.5 97t-246.5 275t-88 410zM390 759q0 -250 112 -397t287 -147q170 0 284.5 147.5t114.5 396.5t-114 396t-285 147q-175 0 -287 -146.5t-112 -396.5zM458 1939h302 l146 -349h-149z" />
<glyph unicode="&#xd3;" horiz-adv-x="1577" d="M91 759q0 351 193.5 566t504.5 215t504.5 -215t193.5 -566q0 -232 -88 -410t-246.5 -275t-363.5 -97t-363.5 97t-246.5 275t-88 410zM390 759q0 -250 112 -397t287 -147q170 0 284.5 147.5t114.5 396.5t-114 396t-285 147q-175 0 -287 -146.5t-112 -396.5zM671 1590 l145 349h302l-297 -349h-150z" />
<glyph unicode="&#xd4;" horiz-adv-x="1577" d="M91 759q0 351 193.5 566t504.5 215t504.5 -215t193.5 -566q0 -232 -88 -410t-246.5 -275t-363.5 -97t-363.5 97t-246.5 275t-88 410zM390 759q0 -250 112 -397t287 -147q170 0 284.5 147.5t114.5 396.5t-114 396t-285 147q-175 0 -287 -146.5t-112 -396.5zM485 1590 l187 349h232l187 -349h-194l-108 197l-109 -197h-195z" />
<glyph unicode="&#xd5;" horiz-adv-x="1577" d="M91 759q0 351 193.5 566t504.5 215t504.5 -215t193.5 -566q0 -232 -88 -410t-246.5 -275t-363.5 -97t-363.5 97t-246.5 275t-88 410zM390 759q0 -250 112 -397t287 -147q170 0 284.5 147.5t114.5 396.5t-114 396t-285 147q-175 0 -287 -146.5t-112 -396.5zM407 1625 q0 105 73 178.5t178 73.5q103 0 176 -73l28 -26q23 -23 56 -23t57.5 24.5t24.5 57.5h170q0 -105 -73.5 -178.5t-178.5 -73.5q-103 0 -176 73l-27 26q-23 23 -57 23t-58 -24.5t-24 -57.5h-169z" />
<glyph unicode="&#xd6;" horiz-adv-x="1577" d="M91 759q0 351 193.5 566t504.5 215t504.5 -215t193.5 -566q0 -232 -88 -410t-246.5 -275t-363.5 -97t-363.5 97t-246.5 275t-88 410zM390 759q0 -250 112 -397t287 -147q170 0 284.5 147.5t114.5 396.5t-114 396t-285 147q-175 0 -287 -146.5t-112 -396.5zM481 1638v251 h232v-251h-232zM865 1638v251h232v-251h-232z" />
<glyph unicode="&#xd7;" horiz-adv-x="1152" d="M126 426l317 317l-317 317l133 134l317 -317l318 317l133 -134l-317 -317l317 -317l-133 -133l-318 317l-317 -317z" />
<glyph unicode="&#xd8;" horiz-adv-x="1577" d="M91 759q0 232 88 410t246.5 274.5t363.5 96.5q199 0 355 -93l97 146h205l-169 -252q101 -104 155.5 -253t54.5 -329q0 -232 -88 -410t-246.5 -275t-363.5 -97q-199 0 -355 93l-96 -146h-205l167 252q-100 104 -154.5 253t-54.5 330zM390 759q0 -201 74 -336l534 806 q-95 73 -209 73q-175 0 -287 -146.5t-112 -396.5zM578 287q93 -72 211 -72q170 0 284.5 147.5t114.5 396.5q0 195 -74 333z" />
<glyph unicode="&#xd9;" horiz-adv-x="1509" d="M182 498v1019h288v-1019q0 -138 80 -213.5t205 -75.5q124 0 204 76t80 213v1019h288v-1019q0 -168 -74.5 -288.5t-202 -180t-295.5 -59.5q-169 0 -297 59.5t-202 180t-74 288.5zM448 1939h301l146 -349h-149z" />
<glyph unicode="&#xda;" horiz-adv-x="1509" d="M182 498v1019h288v-1019q0 -138 80 -213.5t205 -75.5q124 0 204 76t80 213v1019h288v-1019q0 -168 -74.5 -288.5t-202 -180t-295.5 -59.5q-169 0 -297 59.5t-202 180t-74 288.5zM617 1590l146 349h302l-297 -349h-151z" />
<glyph unicode="&#xdb;" horiz-adv-x="1509" d="M182 498v1019h288v-1019q0 -138 80 -213.5t205 -75.5q124 0 204 76t80 213v1019h288v-1019q0 -168 -74.5 -288.5t-202 -180t-295.5 -59.5q-169 0 -297 59.5t-202 180t-74 288.5zM452 1590l187 349h232l186 -349h-194l-108 197l-109 -197h-194z" />
<glyph unicode="&#xdc;" horiz-adv-x="1509" d="M182 498v1019h288v-1019q0 -138 80 -213.5t205 -75.5q124 0 204 76t80 213v1019h288v-1019q0 -168 -74.5 -288.5t-202 -180t-295.5 -59.5q-169 0 -297 59.5t-202 180t-74 288.5zM448 1638v251h230v-251h-230zM831 1638v251h231v-251h-231z" />
<glyph unicode="&#xdd;" horiz-adv-x="1260" d="M-64 1517h360l335 -573l334 573h361l-551 -860v-657h-288v657zM469 1590l145 349h302l-299 -349h-148z" />
<glyph unicode="&#xde;" horiz-adv-x="1271" d="M182 0v1517h288v-309h251q223 0 363 -129t140 -320q0 -195 -139.5 -322.5t-363.5 -127.5h-251v-309h-288zM470 549h225q109 0 171 58.5t62 149.5q0 92 -62 151.5t-171 59.5h-225v-419z" />
<glyph unicode="&#xdf;" horiz-adv-x="1287" d="M167 0v1101q0 191 128.5 315t352.5 124q217 0 349.5 -114.5t132.5 -289.5q0 -118 -62.5 -202.5t-151.5 -129.5q120 -42 193 -137.5t73 -215.5q0 -209 -141.5 -341.5t-385.5 -132.5q-71 0 -132 14v223q49 -17 111 -17q120 0 191.5 72t71.5 177t-69.5 176t-185.5 71h-119 v214h119q96 0 153.5 60t57.5 147t-59 146.5t-149 59.5t-151.5 -63.5t-61.5 -150.5v-1106h-265z" />
<glyph unicode="&#xe0;" horiz-adv-x="1213" d="M99 299q0 152 129 252.5t382 100.5h171q0 88 -7 94q-6 69 -70 116.5t-155 47.5q-138 0 -240 -92l-154 154q181 151 421 151q217 0 344 -114.5t127 -290.5v-718h-258v167q-41 -90 -125.5 -140t-205.5 -50q-154 0 -256.5 94t-102.5 228zM293 1547h302l145 -349h-148z M369 319q0 -59 43.5 -100.5t123.5 -41.5q108 0 176.5 74t68.5 197v34h-182q-113 0 -171.5 -48.5t-58.5 -114.5z" />
<glyph unicode="&#xe1;" horiz-adv-x="1213" d="M99 299q0 152 129 252.5t382 100.5h171q0 88 -7 94q-6 69 -70 116.5t-155 47.5q-138 0 -240 -92l-154 154q181 151 421 151q217 0 344 -114.5t127 -290.5v-718h-258v167q-41 -90 -125.5 -140t-205.5 -50q-154 0 -256.5 94t-102.5 228zM369 319q0 -59 43.5 -100.5 t123.5 -41.5q108 0 176.5 74t68.5 197v34h-182q-113 0 -171.5 -48.5t-58.5 -114.5zM428 1198l145 349h302l-299 -349h-148z" />
<glyph unicode="&#xe2;" horiz-adv-x="1213" d="M99 299q0 152 129 252.5t382 100.5h171q0 88 -7 94q-6 69 -70 116.5t-155 47.5q-138 0 -240 -92l-154 154q181 151 421 151q217 0 344 -114.5t127 -290.5v-718h-258v167q-41 -90 -125.5 -140t-205.5 -50q-154 0 -256.5 94t-102.5 228zM278 1198l186 349h232l187 -349 h-194l-108 198l-109 -198h-194zM369 319q0 -59 43.5 -100.5t123.5 -41.5q108 0 176.5 74t68.5 197v34h-182q-113 0 -171.5 -48.5t-58.5 -114.5z" />
<glyph unicode="&#xe3;" horiz-adv-x="1213" d="M99 299q0 152 129 252.5t382 100.5h171q0 88 -7 94q-6 69 -70 116.5t-155 47.5q-138 0 -240 -92l-154 154q181 151 421 151q217 0 344 -114.5t127 -290.5v-718h-258v167q-41 -90 -125.5 -140t-205.5 -50q-154 0 -256.5 94t-102.5 228zM203 1286q0 105 73.5 178.5 t178.5 73.5q103 0 176 -73l26 -25q26 -23 58 -23q33 0 57 24.5t24 57.5h170q0 -105 -73.5 -178.5t-177.5 -73.5q-105 0 -178 73l-26 26q-25 22 -56 22q-34 0 -58 -24.5t-24 -57.5h-170zM369 319q0 -59 43.5 -100.5t123.5 -41.5q108 0 176.5 74t68.5 197v34h-182 q-113 0 -171.5 -48.5t-58.5 -114.5z" />
<glyph unicode="&#xe4;" horiz-adv-x="1213" d="M99 299q0 152 129 252.5t382 100.5h171q0 88 -7 94q-6 69 -70 116.5t-155 47.5q-138 0 -240 -92l-154 154q181 151 421 151q217 0 344 -114.5t127 -290.5v-718h-258v167q-41 -90 -125.5 -140t-205.5 -50q-154 0 -256.5 94t-102.5 228zM273 1262v252h231v-252h-231z M369 319q0 -59 43.5 -100.5t123.5 -41.5q108 0 176.5 74t68.5 197v34h-182q-113 0 -171.5 -48.5t-58.5 -114.5zM657 1262v252h230v-252h-230z" />
<glyph unicode="&#xe5;" horiz-adv-x="1213" d="M99 299q0 152 129 252.5t382 100.5h171q0 88 -7 94q-6 69 -70 116.5t-155 47.5q-138 0 -240 -92l-154 154q181 151 421 151q217 0 344 -114.5t127 -290.5v-718h-258v167q-41 -90 -125.5 -140t-205.5 -50q-154 0 -256.5 94t-102.5 228zM369 319q0 -59 43.5 -100.5 t123.5 -41.5q108 0 176.5 74t68.5 197v34h-182q-113 0 -171.5 -48.5t-58.5 -114.5zM399 1381q0 73 50.5 123.5t123.5 50.5q72 0 123.5 -51t51.5 -123q0 -73 -51.5 -124t-123.5 -51q-73 0 -123.5 51t-50.5 124zM467 1381q0 -44 31 -75.5t75 -31.5q43 0 74 31.5t31 75.5 t-31 75t-74 31q-44 0 -75 -31t-31 -75z" />
<glyph unicode="&#xe6;" horiz-adv-x="1855" d="M99 300q0 72 30.5 134t90.5 111.5t160 78t230 28.5h171q0 88 -7 94q-6 69 -70 116.5t-155 47.5q-138 0 -240 -92l-154 154q179 151 421 151q120 0 216 -40t149 -112q133 144 344 144q227 0 364.5 -153.5t137.5 -415.5v-73h-734q18 -132 98 -207.5t199 -75.5q135 0 220 85 l155 -155q-165 -143 -390 -143q-142 0 -256.5 63.5t-180.5 170.5q-50 -109 -159.5 -171.5t-260.5 -62.5q-168 0 -273.5 93.5t-105.5 229.5zM369 319q0 -59 43.5 -100.5t123.5 -41.5q108 0 176.5 74t68.5 197v34h-182q-113 0 -171.5 -48.5t-58.5 -114.5zM1056 663h458 q-19 122 -78 184.5t-147 62.5q-89 0 -151 -64.5t-82 -182.5z" />
<glyph unicode="&#xe7;" horiz-adv-x="1057" d="M83 546q0 125 43.5 232t117.5 180.5t175 115t215 41.5q206 0 370 -143l-162 -162q-82 82 -197 82q-121 0 -203 -97t-82 -249q0 -151 82 -247.5t203 -96.5q117 0 197 80l162 -162q-147 -128 -320 -140l-26 -53q59 -6 101 -44.5t42 -96.5q0 -69 -69.5 -121t-183.5 -52 q-108 0 -196 73l77 77q44 -44 108 -44q42 0 65 17.5t23 43.5q0 29 -36.5 47t-113.5 18l70 138q-201 31 -331.5 184.5t-130.5 378.5z" />
<glyph unicode="&#xe8;" horiz-adv-x="1168" d="M83 546q0 254 145 411.5t371 157.5t363.5 -153.5t137.5 -415.5v-73h-734q18 -132 98.5 -207.5t199.5 -75.5q64 0 122 22.5t97 62.5l155 -155q-164 -143 -389 -143q-162 0 -290.5 70t-202 200t-73.5 299zM303 1547h302l146 -349h-149zM370 663h458q-19 121 -78 184 t-146 63q-89 0 -151.5 -65t-82.5 -182z" />
<glyph unicode="&#xe9;" horiz-adv-x="1168" d="M83 546q0 254 145 411.5t371 157.5t363.5 -153.5t137.5 -415.5v-73h-734q18 -132 98.5 -207.5t199.5 -75.5q64 0 122 22.5t97 62.5l155 -155q-164 -143 -389 -143q-162 0 -290.5 70t-202 200t-73.5 299zM370 663h458q-19 121 -78 184t-146 63q-89 0 -151.5 -65 t-82.5 -182zM451 1198l145 349h302l-297 -349h-150z" />
<glyph unicode="&#xea;" horiz-adv-x="1168" d="M83 546q0 254 145 411.5t371 157.5t363.5 -153.5t137.5 -415.5v-73h-734q18 -132 98.5 -207.5t199.5 -75.5q64 0 122 22.5t97 62.5l155 -155q-164 -143 -389 -143q-162 0 -290.5 70t-202 200t-73.5 299zM293 1198l186 349h232l187 -349h-194l-109 198l-108 -198h-194z M370 663h458q-19 121 -78 184t-146 63q-89 0 -151.5 -65t-82.5 -182z" />
<glyph unicode="&#xeb;" horiz-adv-x="1168" d="M83 546q0 254 145 411.5t371 157.5t363.5 -153.5t137.5 -415.5v-73h-734q18 -132 98.5 -207.5t199.5 -75.5q64 0 122 22.5t97 62.5l155 -155q-164 -143 -389 -143q-162 0 -290.5 70t-202 200t-73.5 299zM291 1262v252h232v-252h-232zM370 663h458q-19 121 -78 184 t-146 63q-89 0 -151.5 -65t-82.5 -182zM675 1262v252h232v-252h-232z" />
<glyph unicode="&#xec;" horiz-adv-x="599" d="M-8 1547h302l146 -349h-149zM167 0v1092h265v-1092h-265z" />
<glyph unicode="&#xed;" horiz-adv-x="599" d="M159 1198l146 349h302l-299 -349h-149zM167 0v1092h265v-1092h-265z" />
<glyph unicode="&#xee;" horiz-adv-x="599" d="M-3 1198l187 349h232l186 -349h-194l-108 198l-109 -198h-194zM167 0v1092h265v-1092h-265z" />
<glyph unicode="&#xef;" horiz-adv-x="599" d="M-8 1262v252h233v-252h-233zM167 0v1092h265v-1092h-265zM376 1262v252h231v-252h-231z" />
<glyph unicode="&#xf0;" d="M100 476q0 213 149 356t378 143q105 0 193.5 -50t121.5 -110q-5 203 -71 317l-97 -97l-134 133l97 97q-65 40 -150 40q-161 0 -281 -120l-173 173q77 77 194.5 129.5t256.5 52.5q193 0 335 -93l94 96l135 -135l-89 -88q159 -211 159 -561q0 -234 -63.5 -408t-194.5 -274 t-318 -100q-232 0 -387 142t-155 357zM373 476q0 -113 74 -193.5t195 -80.5q120 0 193.5 80.5t73.5 193.5t-73.5 194t-193.5 81q-121 0 -195 -81.5t-74 -193.5z" />
<glyph unicode="&#xf1;" d="M167 0v1092h258v-168q38 87 127.5 139t213.5 52q180 0 291 -117t111 -315v-683h-265v645q0 123 -56 185t-157 62q-116 0 -187 -87.5t-71 -258.5v-546h-265zM285 1286q0 105 73.5 178.5t178.5 73.5q103 0 176 -73l27 -25q23 -23 56 -23t57.5 24.5t24.5 57.5h170 q0 -105 -73.5 -178.5t-178.5 -73.5q-103 0 -176 73l-27 26q-22 22 -56 22t-58 -24.5t-24 -57.5h-170z" />
<glyph unicode="&#xf2;" horiz-adv-x="1228" d="M83 546q0 257 150 413t381 156t381 -156t150 -413t-150 -413t-381 -156t-381 156t-150 413zM316 1547h301l146 -349h-149zM360 546q0 -161 71.5 -252.5t182.5 -91.5q112 0 183.5 91.5t71.5 252.5t-71 253.5t-184 92.5q-111 0 -182.5 -92.5t-71.5 -253.5z" />
<glyph unicode="&#xf3;" horiz-adv-x="1228" d="M83 546q0 257 150 413t381 156t381 -156t150 -413t-150 -413t-381 -156t-381 156t-150 413zM360 546q0 -161 71.5 -252.5t182.5 -91.5q112 0 183.5 91.5t71.5 252.5t-71 253.5t-184 92.5q-111 0 -182.5 -92.5t-71.5 -253.5zM466 1198l144 349h303l-299 -349h-148z" />
<glyph unicode="&#xf4;" horiz-adv-x="1228" d="M83 546q0 257 150 413t381 156t381 -156t150 -413t-150 -413t-381 -156t-381 156t-150 413zM311 1198l187 349h232l186 -349h-194l-108 198l-109 -198h-194zM360 546q0 -161 71.5 -252.5t182.5 -91.5q112 0 183.5 91.5t71.5 252.5t-71 253.5t-184 92.5 q-111 0 -182.5 -92.5t-71.5 -253.5z" />
<glyph unicode="&#xf5;" horiz-adv-x="1228" d="M83 546q0 257 150 413t381 156t381 -156t150 -413t-150 -413t-381 -156t-381 156t-150 413zM234 1286q0 105 73 178.5t178 73.5q103 0 176 -73l26 -25q26 -23 58 -23q33 0 56.5 24.5t23.5 57.5h170q0 -105 -73.5 -178.5t-178.5 -73.5q-103 0 -176 73l-25 26 q-25 22 -57 22q-34 0 -57.5 -24.5t-23.5 -57.5h-170zM360 546q0 -161 71.5 -252.5t182.5 -91.5q112 0 183.5 91.5t71.5 252.5t-71 253.5t-184 92.5q-111 0 -182.5 -92.5t-71.5 -253.5z" />
<glyph unicode="&#xf6;" horiz-adv-x="1228" d="M83 546q0 257 150 413t381 156t381 -156t150 -413t-150 -413t-381 -156t-381 156t-150 413zM308 1262v252h231v-252h-231zM360 546q0 -161 71.5 -252.5t182.5 -91.5q112 0 183.5 91.5t71.5 252.5t-71 253.5t-184 92.5q-111 0 -182.5 -92.5t-71.5 -253.5zM690 1262v252 h232v-252h-232z" />
<glyph unicode="&#xf8;" horiz-adv-x="1228" d="M83 546q0 257 150 413t381 156q128 0 240 -52l65 105h172l-119 -186q173 -159 173 -436q0 -257 -150 -413t-381 -156q-127 0 -239 52l-66 -105h-171l118 187q-173 159 -173 435zM360 546q0 -121 42 -203l326 519q-50 30 -114 30q-111 0 -182.5 -92.5t-71.5 -253.5z M502 231q48 -29 112 -29q112 0 183.5 91.5t71.5 252.5q0 118 -41 205z" />
<glyph unicode="&#xf9;" d="M167 410v682h265v-644q0 -123 56 -184.5t157 -61.5q116 0 187 86.5t71 257.5v546h265v-1092h-258v168q-38 -87 -127.5 -139t-213.5 -52q-180 0 -291 117.5t-111 315.5zM353 1547h302l146 -349h-150z" />
<glyph unicode="&#xfa;" d="M167 410v682h265v-644q0 -123 56 -184.5t157 -61.5q116 0 187 86.5t71 257.5v546h265v-1092h-258v168q-38 -87 -127.5 -139t-213.5 -52q-180 0 -291 117.5t-111 315.5zM514 1198l146 349h303l-299 -349h-150z" />
<glyph unicode="&#xfb;" d="M167 410v682h265v-644q0 -123 56 -184.5t157 -61.5q116 0 187 86.5t71 257.5v546h265v-1092h-258v168q-38 -87 -127.5 -139t-213.5 -52q-180 0 -291 117.5t-111 315.5zM364 1198l187 349h232l186 -349h-194l-108 198l-109 -198h-194z" />
<glyph unicode="&#xfc;" d="M167 410v682h265v-644q0 -123 56 -184.5t157 -61.5q116 0 187 86.5t71 257.5v546h265v-1092h-258v168q-38 -87 -127.5 -139t-213.5 -52q-180 0 -291 117.5t-111 315.5zM357 1262v252h232v-252h-232zM739 1262v252h232v-252h-232z" />
<glyph unicode="&#xfd;" horiz-adv-x="1155" d="M0 1092h293l279 -814l291 814h293l-519 -1298q-12 -31 -35 -61t-59.5 -60t-94 -48.5t-125.5 -18.5q-102 0 -194 22v213q57 -23 118 -23q106 0 132 61q8 3 27.5 48.5t24.5 64.5zM408 1198l146 349h302l-299 -349h-149z" />
<glyph unicode="&#xfe;" horiz-adv-x="1316" d="M167 -379v1896h265v-551q39 75 132 123.5t187 48.5q96 0 183 -40.5t153.5 -114t106 -184t39.5 -242.5q0 -131 -39.5 -242t-106 -184t-153.5 -113.5t-183 -40.5q-93 0 -186.5 47.5t-132.5 119.5v-523h-265zM432 557q0 -167 75 -261t188 -94t187 94t74 261q0 169 -73 262.5 t-188 93.5q-114 0 -188.5 -94t-74.5 -262z" />
<glyph unicode="&#xff;" horiz-adv-x="1155" d="M0 1092h293l279 -814l291 814h293l-519 -1298q-12 -31 -35 -61t-59.5 -60t-94 -48.5t-125.5 -18.5q-102 0 -194 22v213q57 -23 118 -23q106 0 132 61q8 3 27.5 48.5t24.5 64.5zM269 1262v252h232v-252h-232zM652 1262v252h231v-252h-231z" />
<glyph unicode="&#x152;" horiz-adv-x="2139" d="M91 759q0 351 193.5 566t504.5 215q244 0 399 -166v143h822v-240h-534v-394h519v-240h-519v-405h549v-238h-837v141q-158 -164 -399 -164q-205 0 -363.5 97t-246.5 275t-88 410zM390 759q0 -250 112 -397t287 -147q170 0 284.5 147.5t114.5 396.5t-114 396t-285 147 q-175 0 -287 -146.5t-112 -396.5z" />
<glyph unicode="&#x153;" horiz-adv-x="1953" d="M83 546q0 257 150 413t381 156q123 0 225.5 -49t166.5 -138q62 89 160.5 138t218.5 49q225 0 363 -153.5t138 -415.5v-73h-735q18 -132 98.5 -207.5t199.5 -75.5q135 0 220 85l154 -155q-165 -143 -389 -143q-132 0 -241 51.5t-180 144.5q-68 -94 -171 -145t-228 -51 q-231 0 -381 156t-150 413zM360 546q0 -161 71.5 -252.5t182.5 -91.5q112 0 183.5 91.5t71.5 252.5t-71 253.5t-184 92.5q-111 0 -182.5 -92.5t-71.5 -253.5zM1154 663h459q-19 122 -78 184.5t-147 62.5q-89 0 -151.5 -65t-82.5 -182z" />
<glyph unicode="&#x178;" horiz-adv-x="1260" d="M-64 1517h360l335 -573l334 573h361l-551 -860v-657h-288v657zM323 1620v251h231v-251h-231zM707 1620v251h231v-251h-231z" />
<glyph unicode="&#x2c6;" horiz-adv-x="682" d="M38 1198l187 349h233l187 -349h-194l-110 198l-107 -198h-196z" />
<glyph unicode="&#x2dc;" horiz-adv-x="866" d="M52 1286q0 105 73 178.5t178 73.5q103 0 176 -73l28 -25q23 -23 56 -23t57.5 24.5t24.5 57.5h170q0 -105 -73.5 -178.5t-178.5 -73.5q-103 0 -176 73l-27 26q-22 22 -57 22q-34 0 -58 -24.5t-24 -57.5h-169z" />
<glyph unicode="&#x2000;" horiz-adv-x="977" />
<glyph unicode="&#x2001;" horiz-adv-x="1954" />
<glyph unicode="&#x2002;" horiz-adv-x="977" />
<glyph unicode="&#x2003;" horiz-adv-x="1954" />
<glyph unicode="&#x2004;" horiz-adv-x="651" />
<glyph unicode="&#x2005;" horiz-adv-x="488" />
<glyph unicode="&#x2006;" horiz-adv-x="325" />
<glyph unicode="&#x2007;" horiz-adv-x="325" />
<glyph unicode="&#x2008;" horiz-adv-x="244" />
<glyph unicode="&#x2009;" horiz-adv-x="390" />
<glyph unicode="&#x200a;" horiz-adv-x="108" />
<glyph unicode="&#x2010;" horiz-adv-x="705" d="M91 473v190h523v-190h-523z" />
<glyph unicode="&#x2011;" horiz-adv-x="705" d="M91 473v190h523v-190h-523z" />
<glyph unicode="&#x2012;" horiz-adv-x="705" d="M91 473v190h523v-190h-523z" />
<glyph unicode="&#x2013;" d="M91 473v190h1153v-190h-1153z" />
<glyph unicode="&#x2014;" horiz-adv-x="1949" d="M91 473v190h1767v-190h-1767z" />
<glyph unicode="&#x2018;" horiz-adv-x="591" d="M91 1009l194 508h161l-64 -508h-291z" />
<glyph unicode="&#x2019;" horiz-adv-x="591" d="M144 1009l64 508h293l-195 -508h-162z" />
<glyph unicode="&#x201a;" horiz-adv-x="584" d="M129 -231l65 509h291l-194 -509h-162z" />
<glyph unicode="&#x201c;" horiz-adv-x="1001" d="M91 1009l194 508h161l-64 -508h-291zM508 1009l194 508h161l-62 -508h-293z" />
<glyph unicode="&#x201d;" horiz-adv-x="1001" d="M137 1009l63 508h293l-194 -508h-162zM554 1009l63 508h293l-194 -508h-162z" />
<glyph unicode="&#x201e;" horiz-adv-x="1001" d="M129 -231l65 509h291l-194 -509h-162zM546 -231l64 509h293l-195 -509h-162z" />
<glyph unicode="&#x2022;" horiz-adv-x="644" d="M129 607q0 80 57 137t136 57q81 0 137.5 -57t56.5 -137t-56.5 -137t-137.5 -57q-79 0 -136 57t-57 137z" />
<glyph unicode="&#x2026;" horiz-adv-x="1456" d="M152 0v278h288v-278h-288zM584 0v278h288v-278h-288zM1016 0v278h289v-278h-289z" />
<glyph unicode="&#x202f;" horiz-adv-x="390" />
<glyph unicode="&#x2039;" horiz-adv-x="667" d="M114 607l212 425h264l-212 -425l212 -425h-264z" />
<glyph unicode="&#x203a;" horiz-adv-x="667" d="M77 182l213 425l-213 425h264l213 -425l-213 -425h-264z" />
<glyph unicode="&#x205f;" horiz-adv-x="488" />
<glyph unicode="&#x20ac;" horiz-adv-x="1362" d="M-15 576v129h138q-2 18 -2 54q0 35 2 53h-138v129h152q51 277 241 438t472 161q294 0 476 -182l-173 -173q-116 117 -296 117q-152 0 -263.5 -95.5t-152.5 -265.5h565v-129h-583q-1 -9 -1 -53q0 -45 1 -54h583v-129h-565q41 -170 152.5 -265.5t263.5 -95.5q180 0 296 117 l173 -173q-182 -182 -476 -182q-282 0 -472 161t-241 438h-152z" />
<glyph unicode="&#x2122;" horiz-adv-x="914" d="M42 1434v83h307v-83h-100v-296h-103v296h-104zM388 1138v379h146l70 -232l70 232h145v-379h-97v247l-74 -247h-88l-75 247v-247h-97z" />
<glyph unicode="&#xe000;" horiz-adv-x="1092" d="M0 0v1092h1092v-1092h-1092z" />
<glyph unicode="&#xfb01;" horiz-adv-x="1433" d="M38 880v212h208v137q0 127 92 215t246 88q98 0 194 -23v-212q-59 23 -120 23q-147 0 -147 -129v-99h255v-212h-255v-880h-265v880h-208zM997 1259v258h274v-258h-274zM1001 0v1092h266v-1092h-266z" />
<glyph unicode="&#xfb02;" horiz-adv-x="1433" d="M38 880v212h208v137q0 127 92 215t246 88q98 0 194 -23v-212q-59 23 -120 23q-147 0 -147 -129v-99h255v-212h-255v-880h-265v880h-208zM1001 0v1517h266v-1517h-266z" />
</font>
</defs>
</svg>
